<svg version="1.1" id="Layer_1" xmlns="http://www.w3.org/2000/svg" xmlns:xlink="http://www.w3.org/1999/xlink" x="0px" y="0px"
	 width="100%" viewBox="0 0 567 484" enable-background="new 0 0 567 484" xml:space="preserve">

<path fill="#030303" opacity="1.000000" stroke="none" 
	d="
M333.764923,373.955261 
	C335.135895,362.485687 336.465820,351.463409 337.807098,340.442566 
	C339.069061,330.073425 340.373657,319.709351 341.602295,309.336304 
	C342.673584,300.291962 343.635223,291.234680 344.699677,282.189484 
	C345.974823,271.353912 347.291687,260.523132 348.621063,249.694031 
	C349.506348,242.482773 350.527985,235.287231 351.326630,228.066757 
	C351.759399,224.154282 349.514435,222.548340 345.830078,224.202133 
	C332.538452,230.168335 319.244751,236.138367 306.112305,242.441406 
	C304.209412,243.354721 302.325287,245.915543 301.890839,248.015686 
	C299.316528,260.459229 297.207214,272.998260 294.871643,285.492157 
	C293.232849,294.258820 291.368713,302.984497 289.813263,311.765350 
	C288.113403,321.361572 286.744446,331.016205 285.064514,340.616211 
	C283.128113,351.681641 281.010193,362.715332 278.969452,373.762512 
	C276.929993,384.802704 275.001343,395.864990 272.802856,406.873444 
	C271.609039,412.851349 270.691711,419.097198 263.802399,421.829559 
	C254.630066,425.467346 244.407959,419.377777 244.192627,409.469727 
	C244.053162,403.051483 244.999405,396.587830 245.742767,390.177399 
	C246.829910,380.802155 248.175049,371.456879 249.403534,362.097961 
	C250.696426,352.248322 252.035034,342.404266 253.253693,332.545441 
	C254.330719,323.832611 255.229523,315.097839 256.280823,306.381683 
	C257.565918,295.726868 259.044159,285.093658 260.170288,274.422729 
	C260.432220,271.940552 259.609070,269.343872 259.285217,266.799896 
	C256.852356,267.245544 254.213562,267.231079 252.020630,268.212708 
	C239.332123,273.892456 226.908035,280.192047 214.072571,285.504028 
	C205.816513,288.920837 205.175766,295.910858 203.952835,302.863525 
	C200.718704,321.250397 197.702301,339.675507 194.468674,358.062469 
	C191.723724,373.670654 188.832397,389.253387 185.934952,404.834229 
	C184.480850,412.653564 182.947128,420.287476 173.203568,422.375458 
	C165.833908,423.954712 155.975647,417.569885 155.951538,409.956329 
	C155.926392,402.017853 156.709274,394.052521 157.546036,386.141998 
	C158.519455,376.939484 159.948105,367.785492 161.154938,358.607208 
	C162.428055,348.924744 163.692322,339.241028 164.921753,329.552917 
	C165.586502,324.314667 166.275726,319.075745 166.755844,313.819031 
	C167.106949,309.974854 165.171677,308.511414 161.706451,310.090149 
	C147.238510,316.681732 132.727982,323.197693 118.490219,330.259796 
	C115.996140,331.496887 113.659042,334.999939 113.078308,337.831543 
	C109.031525,357.563477 105.490364,377.398773 101.729836,397.190002 
	C100.867523,401.728271 99.847725,406.239716 98.783951,410.735931 
	C97.068359,417.987213 87.064651,424.609131 79.859070,422.872162 
	C68.224739,420.067657 64.942467,414.819153 65.518707,404.163239 
	C66.172516,392.072845 67.743622,380.029633 69.017891,367.976715 
	C69.382324,364.529602 70.153862,361.127502 70.642990,357.691132 
	C71.248108,353.439819 69.613632,352.162750 65.657021,353.785400 
	C58.153645,356.862579 50.562561,359.755615 43.208557,363.158783 
	C36.170135,366.415863 29.935022,364.812347 24.021124,360.822998 
	C13.525883,353.743286 13.723286,336.272461 24.699520,329.778198 
	C38.550579,321.583008 52.398335,313.183319 67.003746,306.532593 
	C76.582298,302.170837 80.185532,295.865662 81.311890,286.162201 
	C83.085594,270.881866 85.742165,255.705322 87.939156,240.472473 
	C89.945900,226.558685 91.726349,212.611603 93.810593,198.709778 
	C96.336441,181.862442 99.147507,165.057968 101.701454,148.214676 
	C103.734436,134.807159 105.435883,121.348755 107.529976,107.951302 
	C109.161972,97.510246 110.785164,87.039612 113.144493,76.750015 
	C114.813622,69.470543 125.798706,64.331772 132.929840,66.676704 
	C144.291550,70.412773 148.993988,78.437576 147.476578,90.379341 
	C145.385666,106.834404 143.835358,123.358208 141.740204,139.812668 
	C140.341003,150.801483 138.301285,161.707123 136.722519,172.675095 
	C135.073074,184.133972 133.722168,195.635803 132.074677,207.094986 
	C130.499252,218.052795 128.649216,228.970901 127.036034,239.923584 
	C125.902626,247.618774 124.996086,255.347122 123.923172,263.051605 
	C123.468452,266.316864 122.504272,269.546570 122.386833,272.814575 
	C122.235275,277.031799 123.774246,277.862457 127.562881,276.105774 
	C141.230499,269.768494 154.824860,263.267700 168.586136,257.141449 
	C172.671921,255.322556 174.338730,252.221115 175.012802,248.383865 
	C177.384659,234.882019 179.740982,221.372757 181.766113,207.815964 
	C183.841400,193.923355 185.287079,179.935425 187.436432,166.055511 
	C189.785461,150.885986 192.690201,135.803375 195.230621,120.662384 
	C197.307785,108.282310 199.606201,95.919563 201.081009,83.463234 
	C202.918350,67.944771 216.954086,60.660851 229.911804,68.984268 
	C234.438904,71.892265 237.099686,76.205757 236.933228,81.426147 
	C236.669418,89.700005 235.844727,97.975281 234.858749,106.202194 
	C233.439468,118.044586 231.705887,129.850281 230.022552,141.659668 
	C228.995178,148.867310 227.765137,156.045868 226.708038,163.249512 
	C225.460739,171.749237 224.435349,180.283386 223.073044,188.763947 
	C221.080658,201.166779 218.796112,213.522842 216.829926,225.929550 
	C216.470490,228.197617 217.035919,230.612244 217.174423,232.959229 
	C219.479050,232.582962 221.996948,232.680099 224.053650,231.753540 
	C237.323944,225.775284 250.455902,219.490265 263.718536,213.494568 
	C267.801727,211.648651 269.554565,208.849854 270.216522,204.428757 
	C272.392029,189.898788 275.004211,175.434341 277.433533,160.942169 
	C279.643829,147.756516 281.758972,134.554398 284.053558,121.383492 
	C286.691254,106.242928 289.178741,91.065353 292.339172,76.031616 
	C293.769196,69.229218 299.649994,66.570633 306.024811,65.317001 
	C315.855408,63.383774 326.632477,71.527031 326.172211,81.413078 
	C325.680542,91.973503 324.017670,102.482460 322.784485,113.004326 
	C321.800720,121.397690 320.829895,129.796417 319.612427,138.157669 
	C317.540344,152.388367 315.194855,166.579636 313.189209,180.819153 
	C312.894257,182.913025 313.258270,185.614166 314.442413,187.187836 
	C315.046661,187.990891 318.355042,187.381897 320.085999,186.612274 
	C330.366974,182.041077 340.275513,176.472961 350.842438,172.755463 
	C359.036713,169.872681 361.449036,164.358948 362.543823,156.913086 
	C364.754974,141.874649 367.090424,126.853508 369.507843,111.846703 
	C371.294891,100.752892 373.155914,89.667198 375.240662,78.626358 
	C376.879059,69.949394 385.176208,64.174751 394.077972,65.118881 
	C403.889862,66.159538 410.940582,73.085724 410.481995,82.449051 
	C410.020386,91.873291 408.605499,101.258987 407.416931,110.637314 
	C406.062195,121.326935 404.419098,131.980042 403.068451,142.670135 
	C402.665405,145.860184 405.216187,147.591125 408.207428,146.289825 
	C419.729370,141.277359 431.385498,136.519180 442.592346,130.873688 
	C445.480194,129.418915 448.101349,125.320190 448.796722,122.006241 
	C451.339294,109.889206 453.428802,97.639687 454.891510,85.345192 
	C456.080750,75.349411 462.147217,68.125420 472.494354,67.872971 
	C481.682220,67.648796 490.517242,71.784927 491.868469,82.650627 
	C492.793121,90.086342 491.742157,97.777863 491.447235,105.350067 
	C491.331238,108.328697 490.673065,111.289558 490.607941,114.266075 
	C490.494141,119.466667 492.953888,121.252617 497.861664,119.495743 
	C505.487579,116.765800 512.972046,113.620499 520.667664,111.115883 
	C523.663025,110.141006 527.143433,109.857445 530.270691,110.267433 
	C535.448975,110.946304 539.236938,113.995010 540.046082,119.443726 
	C540.903381,125.216423 539.926758,130.763397 534.188965,133.647751 
	C522.633057,139.456818 511.246704,145.940247 499.096619,150.136826 
	C486.579468,154.460205 483.632202,163.358261 482.164307,174.700394 
	C480.534271,187.294998 477.861664,199.752838 475.728455,212.284775 
	C474.172699,221.424286 472.802856,230.595322 471.264893,239.737991 
	C469.125671,252.454788 466.840271,265.147217 464.741058,277.870483 
	C462.748016,289.950317 460.904358,302.054901 459.012817,314.151367 
	C456.891510,327.716827 454.840240,341.293488 452.665619,354.850342 
	C450.649933,367.416626 448.569824,379.973328 446.405792,392.514862 
	C445.113525,400.003876 443.746338,407.485992 442.147644,414.914154 
	C440.942993,420.511414 435.604126,423.573975 428.531158,423.153656 
	C422.835480,422.815186 416.443207,418.065704 416.335114,413.217072 
	C416.195618,406.958618 416.827423,400.671783 417.332214,394.413696 
	C417.745300,389.292908 418.471375,384.197723 419.036743,379.088776 
	C420.823303,362.944977 422.679932,346.808380 424.351593,330.652679 
	C425.461823,319.922791 426.174133,309.151550 427.299377,298.423462 
	C428.387238,288.052063 429.818695,277.717224 431.019836,267.357086 
	C432.126923,257.808319 433.071045,248.240555 434.192688,238.693573 
	C435.312988,229.157867 436.678925,219.650101 437.723633,210.106705 
	C438.624146,201.880753 439.248901,193.623978 439.945618,185.376602 
	C440.247314,181.805191 438.483734,180.716858 435.376923,182.156769 
	C423.207001,187.797134 411.074829,193.519531 398.949249,199.255066 
	C392.160095,202.466431 392.578247,209.371902 391.439087,215.136200 
	C388.814789,228.415558 386.724335,241.803802 384.586853,255.175003 
	C382.604218,267.577515 380.990723,280.039978 378.933197,292.429352 
	C377.392151,301.708588 375.254639,310.887848 373.652374,320.158203 
	C371.624176,331.893097 369.961304,343.690918 367.967316,355.432098 
	C366.391296,364.711945 364.533875,373.943726 362.837402,383.203461 
	C361.262207,391.801331 359.426178,400.367065 358.278290,409.022919 
	C357.256866,416.725311 352.804749,422.046967 345.626862,422.818054 
	C339.742859,423.450134 332.073059,418.955566 331.315094,413.557007 
	C330.605164,408.500793 330.846924,403.244415 331.225891,398.117249 
	C331.811462,390.194214 332.870605,382.306122 333.764923,373.955261 
z"/>
</svg>